<?xml version="1.0" encoding="UTF-8" standalone="no"?>
<!-- Created with Inkscape (http://www.inkscape.org/) -->

<svg
   width="133.25771mm"
   height="85.63166mm"
   viewBox="0 0 133.25771 85.63166"
   version="1.1"
   id="svg5"
   xmlns="http://www.w3.org/2000/svg"
   xmlns:svg="http://www.w3.org/2000/svg">
  <defs
     id="defs2" />
  <g
     id="layer1"
     transform="translate(-51.205301,-183.49697)">
    <path
       id="path489-1"
       style="fill:#000000;stroke:#000000;stroke-width:0.965;stroke-dasharray:none;stroke-opacity:1"
       d="M 78.146292 183.97963 C 71.219537 183.97963 64.335312 186.83106 59.437357 191.72903 C 54.539402 196.62697 51.687958 203.51121 51.687959 210.43796 L 51.687959 268.64629 L 64.917126 268.64629 L 64.917126 210.43796 C 64.917125 206.97457 66.342846 203.53248 68.791824 201.08349 C 71.240801 198.63453 74.682914 197.20879 78.146292 197.20879 C 81.60967 197.20879 85.051783 198.63453 87.50076 201.08349 C 89.949739 203.53248 91.375459 206.97458 91.375459 210.43796 L 91.375459 216.59986 L 91.375459 232.83349 L 91.375459 235.12069 C 91.375459 242.04745 94.226902 248.93168 99.124857 253.82963 C 104.0228 258.72759 110.90703 261.57903 117.83379 261.57903 C 124.76055 261.57903 131.64478 258.7276 136.54273 253.82963 C 141.44069 248.93168 144.29213 242.04745 144.29213 235.12069 L 144.29213 232.83349 L 144.29316 232.83349 L 144.29316 210.43796 C 144.29316 206.97458 145.71888 203.53248 148.16786 201.08349 C 150.61684 198.63453 154.05895 197.20879 157.52233 197.20879 C 160.9857 197.20879 164.42782 198.63453 166.87679 201.08349 C 169.32577 203.53248 170.75149 206.97457 170.75149 210.43796 L 170.75149 268.64629 L 183.98066 268.64629 L 183.98066 210.43796 C 183.98066 203.51121 181.12922 196.62697 176.23126 191.72903 C 171.33331 186.83106 164.44908 183.97963 157.52233 183.97963 C 150.59557 183.97963 143.71135 186.83106 138.81339 191.72903 C 133.91544 196.62697 131.06399 203.51121 131.06399 210.43796 L 131.06399 216.59986 L 131.06296 216.59986 L 131.06296 235.12069 C 131.06296 238.58408 129.63723 242.02617 127.18826 244.47516 C 124.73928 246.92413 121.29717 248.34986 117.83379 248.34986 C 114.37041 248.34986 110.9283 246.92413 108.47932 244.47516 C 106.03035 242.02617 104.60463 238.58407 104.60463 235.12069 L 104.60463 232.83349 L 104.60463 216.59986 L 104.60463 210.43796 C 104.60463 203.51121 101.75318 196.62697 96.855228 191.72903 C 91.957278 186.83106 85.073048 183.97963 78.146292 183.97963 z " />
  </g>
</svg>
